<svg xmlns="http://www.w3.org/2000/svg" viewBox="0 0 192 192">
  <g fill="#111827">
    <rect x="40" y="94" width="18" height="18" rx="2"/>
    <rect x="58" y="76" width="18" height="36" rx="2"/>
    <rect x="76" y="58" width="18" height="54" rx="2"/>
    <rect x="94" y="58" width="18" height="18" rx="2"/>
    <rect x="94" y="94" width="18" height="18" rx="2"/>
    <rect x="112" y="76" width="18" height="18" rx="2"/>
    <rect x="76" y="112" width="18" height="30" rx="2"/>
    <rect x="106" y="112" width="18" height="30" rx="2"/>
  </g>
  <circle cx="104" cy="70" r="3.5" fill="#f8fafc"/>
  <g fill="#166534">
    <rect x="142" y="84" width="12" height="58" rx="3"/>
    <rect x="134" y="98" width="12" height="12" rx="3"/>
    <rect x="152" y="108" width="12" height="12" rx="3"/>
    <rect x="138" y="124" width="12" height="12" rx="3"/>
  </g>
</svg>
