<svg xmlns="http://www.w3.org/2000/svg" viewBox="0 0 192 192">
  <g>
    <rect x="42" y="106" width="22" height="22" rx="4" fill="#38bdf8"/>
    <rect x="64" y="106" width="22" height="22" rx="4" fill="#38bdf8"/>
    <rect x="86" y="106" width="22" height="22" rx="4" fill="#38bdf8"/>
    <rect x="108" y="106" width="22" height="22" rx="4" fill="#38bdf8"/>
    <rect x="118" y="58" width="22" height="22" rx="4" fill="#f97316"/>
    <rect x="118" y="80" width="22" height="22" rx="4" fill="#f97316"/>
    <rect x="118" y="102" width="22" height="22" rx="4" fill="#f97316"/>
    <rect x="96" y="102" width="22" height="22" rx="4" fill="#f97316"/>
    <rect x="48" y="62" width="22" height="22" rx="4" fill="#a855f7"/>
    <rect x="70" y="62" width="22" height="22" rx="4" fill="#a855f7"/>
    <rect x="92" y="62" width="22" height="22" rx="4" fill="#a855f7"/>
    <rect x="70" y="40" width="22" height="22" rx="4" fill="#a855f7"/>
  </g>
</svg>
