<svg xmlns="http://www.w3.org/2000/svg" viewBox="0 0 192 192">
  <g stroke="#8a4a16" stroke-width="2.4" opacity=".55">
    <path d="M42 42h108M42 68h108M42 94h108M42 124h108M42 150h108"/>
    <path d="M42 42v52M68 42v108M94 42v108M120 42v108M150 42v52"/>
    <path d="M42 98v52M150 98v52"/>
    <path d="M68 42l52 52M120 42L68 94M68 98l52 52M120 98l-52 52"/>
  </g>
  <circle cx="62" cy="118" r="20" fill="#f8fafc" stroke="#b91c1c" stroke-width="5"/>
  <circle cx="130" cy="74" r="20" fill="#f8fafc" stroke="#0f172a" stroke-width="5"/>
  <path d="M54 118h16M62 110v16" stroke="#b91c1c" stroke-width="4" stroke-linecap="round"/>
  <path d="M122 74h16M130 66v16" stroke="#0f172a" stroke-width="4" stroke-linecap="round"/>
</svg>
